{"accessors" : [{"bufferView" : 0, "byteOffset" : 0, "componentType" : 5123, "count" : 6, "type" : "SCALAR", "max" : [4], "min" : [0]}, {"bufferView" : 1, "byteOffset" : 0, "componentType" : 5126, "count" : 5, "type" : "VEC3", "max" : [467.41845703125, 0, 467.41845703125], "min" : [-467.41845703125, 0, -467.41845703125], "name" : "POSITION"}, {"bufferView" : 1, "byteOffset" : 12, "componentType" : 5126, "count" : 5, "type" : "VEC2", "max" : [1, -0], "min" : [0, -1], "name" : "TEXCOORD_0"}, {"bufferView" : 1, "byteOffset" : 20, "componentType" : 5126, "count" : 5, "type" : "VEC3", "max" : [0, 1.0000044107437134, 0], "min" : [0, 1.0000044107437134, 0], "name" : "NORMAL"}, {"bufferView" : 0, "byteOffset" : 12, "componentType" : 5123, "count" : 4725, "type" : "SCALAR", "max" : [4724], "min" : [0]}, {"bufferView" : 2, "byteOffset" : 0, "componentType" : 5126, "count" : 4725, "type" : "VEC3", "max" : [16.028732299804688, 61.8001823425293, 365.50030517578125], "min" : [-15.923651695251465, 0.44957101345062256, 334.3329772949219], "name" : "POSITION"}, {"bufferView" : 2, "byteOffset" : 12, "componentType" : 5126, "count" : 4725, "type" : "VEC2", "max" : [0.900609016418457, -0.009999999776482582], "min" : [0.009999999776482582, -0.9900000095367432], "name" : "TEXCOORD_0"}, {"bufferView" : 2, "byteOffset" : 20, "componentType" : 5126, "count" : 4725, "type" : "VEC3", "max" : [0.9938409328460693, 0.9989227652549744, 0.9966028332710266], "min" : [-0.994391143321991, -1.0000041723251343, -0.9998655319213867], "name" : "NORMAL"}, {"bufferView" : 0, "byteOffset" : 9464, "componentType" : 5123, "count" : 4725, "type" : "SCALAR", "max" : [4724], "min" : [0]}, {"bufferView" : 3, "byteOffset" : 0, "componentType" : 5126, "count" : 4725, "type" : "VEC3", "max" : [51.24409866333008, 61.8001823425293, 392.0373840332031], "min" : [19.285905838012695, 0.44957101345062256, 360.2369689941406], "name" : "POSITION"}, {"bufferView" : 3, "byteOffset" : 12, "componentType" : 5126, "count" : 4725, "type" : "VEC2", "max" : [0.900609016418457, -0.009999999776482582], "min" : [0.009999999776482582, -0.9900000095367432], "name" : "TEXCOORD_0"}, {"bufferView" : 3, "byteOffset" : 20, "componentType" : 5126, "count" : 4725, "type" : "VEC3", "max" : [0.9970880150794983, 0.9989227652549744, 0.9996394515037537], "min" : [-0.9989050626754761, -1.0000041723251343, -0.9994316697120667], "name" : "NORMAL"}, {"bufferView" : 0, "byteOffset" : 18916, "componentType" : 5123, "count" : 4725, "type" : "SCALAR", "max" : [4724], "min" : [0]}, {"bufferView" : 4, "byteOffset" : 0, "componentType" : 5126, "count" : 4725, "type" : "VEC3", "max" : [-32.338531494140625, 61.8001823425293, 358.3647155761719], "min" : [-63.48424530029297, 0.44957101345062256, 326.4506530761719], "name" : "POSITION"}, {"bufferView" : 4, "byteOffset" : 12, "componentType" : 5126, "count" : 4725, "type" : "VEC2", "max" : [0.900609016418457, -0.009999999776482582], "min" : [0.009999999776482582, -0.9900000095367432], "name" : "TEXCOORD_0"}, {"bufferView" : 4, "byteOffset" : 20, "componentType" : 5126, "count" : 4725, "type" : "VEC3", "max" : [0.9979467391967773, 0.9989227652549744, 0.9958812594413757], "min" : [-0.9996451735496521, -1.0000041723251343, -0.9918582439422607], "name" : "NORMAL"}, {"bufferView" : 0, "byteOffset" : 28368, "componentType" : 5123, "count" : 4725, "type" : "SCALAR", "max" : [4724], "min" : [0]}, {"bufferView" : 5, "byteOffset" : 0, "componentType" : 5126, "count" : 4725, "type" : "VEC3", "max" : [59.529151916503906, 61.8001823425293, 438.5666809082031], "min" : [27.894258499145508, 0.44957101345062256, 407.8865661621094], "name" : "POSITION"}, {"bufferView" : 5, "byteOffset" : 12, "componentType" : 5126, "count" : 4725, "type" : "VEC2", "max" : [0.900609016418457, -0.009999999776482582], "min" : [0.009999999776482582, -0.9900000095367432], "name" : "TEXCOORD_0"}, {"bufferView" : 5, "byteOffset" : 20, "componentType" : 5126, "count" : 4725, "type" : "VEC3", "max" : [0.9997872710227966, 0.9989227652549744, 0.9991714954376221], "min" : [-0.9983669519424438, -1.0000041723251343, -0.9967568516731262], "name" : "NORMAL"}], "asset" : {"generator" : "Aspose.3D 21.11", "version" : "2.0"}, "buffers" : [{"uri" : "data:application/octet-stream;base64,", "byteLength" : 642836}], "bufferViews" : [{"buffer" : 0, "byteOffset" : 0, "byteLength" : 37820, "target" : 34963}, {"buffer" : 0, "byteOffset" : 37824, "byteLength" : 192, "byteStride" : 32, "target" : 34962}, {"buffer" : 0, "byteOffset" : 38020, "byteLength" : 151200, "byteStride" : 32, "target" : 34962}, {"buffer" : 0, "byteOffset" : 189224, "byteLength" : 151200, "byteStride" : 32, "target" : 34962}, {"buffer" : 0, "byteOffset" : 340428, "byteLength" : 151200, "byteStride" : 32, "target" : 34962}, {"buffer" : 0, "byteOffset" : 491632, "byteLength" : 151200, "byteStride" : 32, "target" : 34962}], "materials" : [{"name" : "", "pbrMetallicRoughness" : {"baseColorFactor" : [0.5, 0.5, 0.5, 1], "metallicFactor" : 0, "roughnessFactor" : 0}, "emissiveFactor" : [0, 0, 0], "alphaMode" : "OPAQUE", "doubleSided" : false}, {"name" : "", "pbrMetallicRoughness" : {"baseColorFactor" : [1, 0.08, 0.08, 1], "metallicFactor" : 0, "roughnessFactor" : 0}, "emissiveFactor" : [0, 0, 0], "alphaMode" : "OPAQUE", "doubleSided" : false}, {"name" : "", "pbrMetallicRoughness" : {"baseColorFactor" : [1, 0.08, 0.08, 1], "metallicFactor" : 0, "roughnessFactor" : 0}, "emissiveFactor" : [0, 0, 0], "alphaMode" : "OPAQUE", "doubleSided" : false}, {"name" : "", "pbrMetallicRoughness" : {"baseColorFactor" : [1, 0.08, 0.08, 1], "metallicFactor" : 0, "roughnessFactor" : 0}, "emissiveFactor" : [0, 0, 0], "alphaMode" : "OPAQUE", "doubleSided" : false}, {"name" : "", "pbrMetallicRoughness" : {"baseColorFactor" : [1, 0.08, 0.08, 1], "metallicFactor" : 0, "roughnessFactor" : 0}, "emissiveFactor" : [0, 0, 0], "alphaMode" : "OPAQUE", "doubleSided" : false}], "meshes" : [{"primitives" : [{"attributes" : {"POSITION" : 1, "TEXCOORD_0" : 2, "NORMAL" : 3}, "indices" : 0, "material" : 0, "mode" : 4}], "name" : ""}, {"primitives" : [{"attributes" : {"POSITION" : 5, "TEXCOORD_0" : 6, "NORMAL" : 7}, "indices" : 4, "material" : 1, "mode" : 4}], "name" : ""}, {"primitives" : [{"attributes" : {"POSITION" : 9, "TEXCOORD_0" : 10, "NORMAL" : 11}, "indices" : 8, "material" : 2, "mode" : 4}], "name" : ""}, {"primitives" : [{"attributes" : {"POSITION" : 13, "TEXCOORD_0" : 14, "NORMAL" : 15}, "indices" : 12, "material" : 3, "mode" : 4}], "name" : ""}, {"primitives" : [{"attributes" : {"POSITION" : 17, "TEXCOORD_0" : 18, "NORMAL" : 19}, "indices" : 16, "material" : 4, "mode" : 4}], "name" : ""}], "nodes" : [{"mesh" : 0, "name" : "pPlane1 group1"}, {"mesh" : 1, "name" : "group1 bottle"}, {"mesh" : 2, "name" : "group1 bottle_ncl1_1"}, {"mesh" : 3, "name" : "group1 bottle_ncl1_2"}, {"mesh" : 4, "name" : "group1 bottle_ncl1_3"}], "scene" : 0, "scenes" : [{"nodes" : [0, 1, 2, 3, 4]}]}